<mxfile host="app.diagrams.net" modified="2024-06-01T17:38:36.801Z" agent="Mozilla/5.0 (Windows NT 10.0; Win64; x64) AppleWebKit/537.36 (KHTML, like Gecko) Chrome/125.0.0.0 Safari/537.36" etag="mItxIKQjpDkjTU5raa3_" version="24.4.13" type="github">
  <diagram name="Page-1" id="-OZIe05YQaMjz7e-lakk">
    <mxGraphModel dx="1000" dy="497" grid="1" gridSize="10" guides="1" tooltips="1" connect="1" arrows="1" fold="1" page="1" pageScale="1" pageWidth="827" pageHeight="1169" math="0" shadow="0">
      <root>
        <mxCell id="0" />
        <mxCell id="1" parent="0" />
        <mxCell id="jqsIoBwaRQyOEGOpOjdC-4" style="edgeStyle=orthogonalEdgeStyle;rounded=0;orthogonalLoop=1;jettySize=auto;html=1;entryX=0;entryY=0.5;entryDx=0;entryDy=0;" edge="1" parent="1" source="jqsIoBwaRQyOEGOpOjdC-1" target="jqsIoBwaRQyOEGOpOjdC-2">
          <mxGeometry relative="1" as="geometry" />
        </mxCell>
        <mxCell id="jqsIoBwaRQyOEGOpOjdC-1" value="" style="shape=actor;whiteSpace=wrap;html=1;" vertex="1" parent="1">
          <mxGeometry x="20" y="330" width="40" height="60" as="geometry" />
        </mxCell>
        <mxCell id="jqsIoBwaRQyOEGOpOjdC-7" style="edgeStyle=orthogonalEdgeStyle;rounded=0;orthogonalLoop=1;jettySize=auto;html=1;" edge="1" parent="1" source="jqsIoBwaRQyOEGOpOjdC-2" target="jqsIoBwaRQyOEGOpOjdC-6">
          <mxGeometry relative="1" as="geometry" />
        </mxCell>
        <mxCell id="jqsIoBwaRQyOEGOpOjdC-2" value="choix catégories recherches + saisie de la recherche" style="rounded=0;whiteSpace=wrap;html=1;" vertex="1" parent="1">
          <mxGeometry x="190" y="330" width="120" height="60" as="geometry" />
        </mxCell>
        <mxCell id="jqsIoBwaRQyOEGOpOjdC-54" style="edgeStyle=orthogonalEdgeStyle;rounded=0;orthogonalLoop=1;jettySize=auto;html=1;entryX=1;entryY=0.25;entryDx=0;entryDy=0;" edge="1" parent="1" source="jqsIoBwaRQyOEGOpOjdC-3" target="jqsIoBwaRQyOEGOpOjdC-53">
          <mxGeometry relative="1" as="geometry">
            <Array as="points">
              <mxPoint x="740" y="135" />
            </Array>
          </mxGeometry>
        </mxCell>
        <mxCell id="jqsIoBwaRQyOEGOpOjdC-3" value="Backend" style="rounded=0;whiteSpace=wrap;html=1;" vertex="1" parent="1">
          <mxGeometry x="680" y="330" width="120" height="60" as="geometry" />
        </mxCell>
        <mxCell id="jqsIoBwaRQyOEGOpOjdC-5" value="contrôle caractères saisies par REGEX" style="text;html=1;align=center;verticalAlign=middle;whiteSpace=wrap;rounded=0;" vertex="1" parent="1">
          <mxGeometry x="60" y="330" width="120" height="30" as="geometry" />
        </mxCell>
        <mxCell id="jqsIoBwaRQyOEGOpOjdC-8" style="edgeStyle=orthogonalEdgeStyle;rounded=0;orthogonalLoop=1;jettySize=auto;html=1;" edge="1" parent="1" source="jqsIoBwaRQyOEGOpOjdC-6" target="jqsIoBwaRQyOEGOpOjdC-3">
          <mxGeometry relative="1" as="geometry" />
        </mxCell>
        <mxCell id="jqsIoBwaRQyOEGOpOjdC-6" value="contrôle champs non vide" style="rounded=0;whiteSpace=wrap;html=1;" vertex="1" parent="1">
          <mxGeometry x="420" y="330" width="120" height="60" as="geometry" />
        </mxCell>
        <mxCell id="jqsIoBwaRQyOEGOpOjdC-9" value="&lt;font color=&quot;#009900&quot;&gt;OK&lt;/font&gt;" style="text;html=1;align=center;verticalAlign=middle;whiteSpace=wrap;rounded=0;" vertex="1" parent="1">
          <mxGeometry x="530" y="330" width="60" height="30" as="geometry" />
        </mxCell>
        <mxCell id="jqsIoBwaRQyOEGOpOjdC-11" value="Info saisie non conforme" style="rounded=0;whiteSpace=wrap;html=1;" vertex="1" parent="1">
          <mxGeometry x="190" y="220" width="120" height="60" as="geometry" />
        </mxCell>
        <mxCell id="jqsIoBwaRQyOEGOpOjdC-13" value="" style="edgeStyle=elbowEdgeStyle;elbow=vertical;endArrow=classic;html=1;curved=0;rounded=0;endSize=8;startSize=8;exitX=0.5;exitY=0;exitDx=0;exitDy=0;" edge="1" parent="1" source="jqsIoBwaRQyOEGOpOjdC-6" target="jqsIoBwaRQyOEGOpOjdC-11">
          <mxGeometry width="50" height="50" relative="1" as="geometry">
            <mxPoint x="430" y="260" as="sourcePoint" />
            <mxPoint x="480" y="210" as="targetPoint" />
          </mxGeometry>
        </mxCell>
        <mxCell id="jqsIoBwaRQyOEGOpOjdC-14" value="&lt;font color=&quot;#ff0000&quot;&gt;NOK&lt;/font&gt;" style="text;html=1;align=center;verticalAlign=middle;whiteSpace=wrap;rounded=0;" vertex="1" parent="1">
          <mxGeometry x="420" y="270" width="60" height="30" as="geometry" />
        </mxCell>
        <mxCell id="jqsIoBwaRQyOEGOpOjdC-15" value="Récupération tableau objets selon catégories des lieux triés par pertinence (via indice dans une propriété" style="rounded=0;whiteSpace=wrap;html=1;" vertex="1" parent="1">
          <mxGeometry x="420" y="430" width="120" height="270" as="geometry" />
        </mxCell>
        <mxCell id="jqsIoBwaRQyOEGOpOjdC-17" value="" style="edgeStyle=elbowEdgeStyle;elbow=vertical;endArrow=classic;html=1;curved=0;rounded=0;endSize=8;startSize=8;" edge="1" parent="1" source="jqsIoBwaRQyOEGOpOjdC-3" target="jqsIoBwaRQyOEGOpOjdC-15">
          <mxGeometry width="50" height="50" relative="1" as="geometry">
            <mxPoint x="400" y="460" as="sourcePoint" />
            <mxPoint x="450" y="410" as="targetPoint" />
          </mxGeometry>
        </mxCell>
        <mxCell id="jqsIoBwaRQyOEGOpOjdC-19" value="Affichage 7 résultats" style="rounded=0;whiteSpace=wrap;html=1;" vertex="1" parent="1">
          <mxGeometry x="190" y="430" width="120" height="260" as="geometry" />
        </mxCell>
        <mxCell id="jqsIoBwaRQyOEGOpOjdC-21" value="" style="endArrow=none;html=1;rounded=0;exitX=0.866;exitY=0.977;exitDx=0;exitDy=0;fillColor=#ffe6cc;strokeColor=#d79b00;exitPerimeter=0;" edge="1" parent="1" source="jqsIoBwaRQyOEGOpOjdC-1">
          <mxGeometry width="50" height="50" relative="1" as="geometry">
            <mxPoint x="290" y="520" as="sourcePoint" />
            <mxPoint x="55" y="450" as="targetPoint" />
          </mxGeometry>
        </mxCell>
        <mxCell id="jqsIoBwaRQyOEGOpOjdC-22" value="" style="endArrow=classic;html=1;rounded=0;entryX=-0.017;entryY=0.078;entryDx=0;entryDy=0;entryPerimeter=0;fillColor=#ffe6cc;strokeColor=#d79b00;exitX=-0.041;exitY=0.981;exitDx=0;exitDy=0;exitPerimeter=0;" edge="1" parent="1" source="jqsIoBwaRQyOEGOpOjdC-23" target="jqsIoBwaRQyOEGOpOjdC-19">
          <mxGeometry width="50" height="50" relative="1" as="geometry">
            <mxPoint x="40" y="450" as="sourcePoint" />
            <mxPoint x="340" y="470" as="targetPoint" />
          </mxGeometry>
        </mxCell>
        <mxCell id="jqsIoBwaRQyOEGOpOjdC-23" value="clique changement de page" style="text;html=1;align=center;verticalAlign=middle;whiteSpace=wrap;rounded=0;fillColor=#ffe6cc;strokeColor=#d79b00;" vertex="1" parent="1">
          <mxGeometry x="60" y="420" width="110" height="30" as="geometry" />
        </mxCell>
        <mxCell id="jqsIoBwaRQyOEGOpOjdC-26" style="edgeStyle=orthogonalEdgeStyle;rounded=0;orthogonalLoop=1;jettySize=auto;html=1;entryX=1.005;entryY=0.037;entryDx=0;entryDy=0;entryPerimeter=0;exitX=0;exitY=0.036;exitDx=0;exitDy=0;exitPerimeter=0;" edge="1" parent="1" source="jqsIoBwaRQyOEGOpOjdC-15" target="jqsIoBwaRQyOEGOpOjdC-19">
          <mxGeometry relative="1" as="geometry" />
        </mxCell>
        <mxCell id="jqsIoBwaRQyOEGOpOjdC-27" value="" style="endArrow=classic;html=1;rounded=0;exitX=1;exitY=0.25;exitDx=0;exitDy=0;fillColor=#ffe6cc;strokeColor=#d79b00;" edge="1" parent="1">
          <mxGeometry width="50" height="50" relative="1" as="geometry">
            <mxPoint x="310" y="450" as="sourcePoint" />
            <mxPoint x="417" y="450" as="targetPoint" />
          </mxGeometry>
        </mxCell>
        <mxCell id="jqsIoBwaRQyOEGOpOjdC-28" value="demande 7 résultats suivants ou précédents" style="text;html=1;align=center;verticalAlign=middle;whiteSpace=wrap;rounded=0;fillColor=#ffe6cc;strokeColor=#d79b00;" vertex="1" parent="1">
          <mxGeometry x="315" y="460" width="100" height="40" as="geometry" />
        </mxCell>
        <mxCell id="jqsIoBwaRQyOEGOpOjdC-30" value="" style="endArrow=classic;html=1;rounded=0;exitX=-0.017;exitY=0.302;exitDx=0;exitDy=0;exitPerimeter=0;fillColor=#ffe6cc;strokeColor=#d79b00;entryX=0.985;entryY=0.312;entryDx=0;entryDy=0;entryPerimeter=0;" edge="1" parent="1" source="jqsIoBwaRQyOEGOpOjdC-15" target="jqsIoBwaRQyOEGOpOjdC-19">
          <mxGeometry width="50" height="50" relative="1" as="geometry">
            <mxPoint x="415.2" y="510.00000000000006" as="sourcePoint" />
            <mxPoint x="310" y="510" as="targetPoint" />
          </mxGeometry>
        </mxCell>
        <mxCell id="jqsIoBwaRQyOEGOpOjdC-32" value="" style="endArrow=none;html=1;rounded=0;entryX=0.627;entryY=0.995;entryDx=0;entryDy=0;entryPerimeter=0;fillColor=#dae8fc;strokeColor=#6c8ebf;" edge="1" parent="1">
          <mxGeometry width="50" height="50" relative="1" as="geometry">
            <mxPoint x="40" y="510" as="sourcePoint" />
            <mxPoint x="40.079999999999984" y="389.69999999999993" as="targetPoint" />
          </mxGeometry>
        </mxCell>
        <mxCell id="jqsIoBwaRQyOEGOpOjdC-33" value="" style="endArrow=classic;html=1;rounded=0;entryX=-0.015;entryY=0.193;entryDx=0;entryDy=0;entryPerimeter=0;fillColor=#dae8fc;strokeColor=#6c8ebf;" edge="1" parent="1">
          <mxGeometry width="50" height="50" relative="1" as="geometry">
            <mxPoint x="40" y="510" as="sourcePoint" />
            <mxPoint x="188.20000000000005" y="510.18000000000006" as="targetPoint" />
          </mxGeometry>
        </mxCell>
        <mxCell id="jqsIoBwaRQyOEGOpOjdC-34" value="application de filtres" style="text;html=1;align=center;verticalAlign=middle;whiteSpace=wrap;rounded=0;fillColor=#dae8fc;strokeColor=#6c8ebf;" vertex="1" parent="1">
          <mxGeometry x="50" y="475" width="110" height="30" as="geometry" />
        </mxCell>
        <mxCell id="jqsIoBwaRQyOEGOpOjdC-35" value="" style="endArrow=classic;html=1;rounded=0;exitX=1.012;exitY=0.405;exitDx=0;exitDy=0;exitPerimeter=0;entryX=-0.032;entryY=0.39;entryDx=0;entryDy=0;entryPerimeter=0;fillColor=#dae8fc;strokeColor=#6c8ebf;" edge="1" parent="1" source="jqsIoBwaRQyOEGOpOjdC-19" target="jqsIoBwaRQyOEGOpOjdC-15">
          <mxGeometry width="50" height="50" relative="1" as="geometry">
            <mxPoint x="290" y="610" as="sourcePoint" />
            <mxPoint x="340" y="560" as="targetPoint" />
          </mxGeometry>
        </mxCell>
        <mxCell id="jqsIoBwaRQyOEGOpOjdC-36" value="demande renvoi résultat correspondant filtre" style="text;html=1;align=center;verticalAlign=middle;whiteSpace=wrap;rounded=0;fillColor=#dae8fc;strokeColor=#6c8ebf;" vertex="1" parent="1">
          <mxGeometry x="315" y="545" width="100" height="65" as="geometry" />
        </mxCell>
        <mxCell id="jqsIoBwaRQyOEGOpOjdC-37" value="" style="endArrow=classic;html=1;rounded=0;exitX=-0.008;exitY=0.71;exitDx=0;exitDy=0;exitPerimeter=0;entryX=1.028;entryY=0.735;entryDx=0;entryDy=0;entryPerimeter=0;fillColor=#dae8fc;strokeColor=#6c8ebf;" edge="1" parent="1" source="jqsIoBwaRQyOEGOpOjdC-15" target="jqsIoBwaRQyOEGOpOjdC-19">
          <mxGeometry width="50" height="50" relative="1" as="geometry">
            <mxPoint x="290" y="610" as="sourcePoint" />
            <mxPoint x="340" y="560" as="targetPoint" />
          </mxGeometry>
        </mxCell>
        <mxCell id="jqsIoBwaRQyOEGOpOjdC-38" value="" style="endArrow=none;html=1;rounded=0;entryX=0.627;entryY=0.995;entryDx=0;entryDy=0;entryPerimeter=0;fillColor=#f8cecc;strokeColor=#b85450;" edge="1" parent="1">
          <mxGeometry width="50" height="50" relative="1" as="geometry">
            <mxPoint x="30" y="590" as="sourcePoint" />
            <mxPoint x="30.079999999999984" y="389.99999999999994" as="targetPoint" />
          </mxGeometry>
        </mxCell>
        <mxCell id="jqsIoBwaRQyOEGOpOjdC-39" value="" style="endArrow=classic;html=1;rounded=0;entryX=-0.009;entryY=0.616;entryDx=0;entryDy=0;entryPerimeter=0;fillColor=#f8cecc;strokeColor=#b85450;" edge="1" parent="1" target="jqsIoBwaRQyOEGOpOjdC-19">
          <mxGeometry width="50" height="50" relative="1" as="geometry">
            <mxPoint x="30" y="590" as="sourcePoint" />
            <mxPoint x="120" y="430" as="targetPoint" />
          </mxGeometry>
        </mxCell>
        <mxCell id="jqsIoBwaRQyOEGOpOjdC-40" value="changement de catégories" style="text;html=1;align=center;verticalAlign=middle;whiteSpace=wrap;rounded=0;fillColor=#f8cecc;strokeColor=#b85450;" vertex="1" parent="1">
          <mxGeometry x="40" y="555" width="110" height="30" as="geometry" />
        </mxCell>
        <mxCell id="jqsIoBwaRQyOEGOpOjdC-43" style="edgeStyle=orthogonalEdgeStyle;rounded=0;orthogonalLoop=1;jettySize=auto;html=1;exitX=1;exitY=0.25;exitDx=0;exitDy=0;fillColor=#f8cecc;strokeColor=#b85450;" edge="1" parent="1" source="jqsIoBwaRQyOEGOpOjdC-41" target="jqsIoBwaRQyOEGOpOjdC-15">
          <mxGeometry relative="1" as="geometry" />
        </mxCell>
        <mxCell id="jqsIoBwaRQyOEGOpOjdC-41" value="catégorie tous recherchés précédement sélectionné?" style="rounded=0;whiteSpace=wrap;html=1;" vertex="1" parent="1">
          <mxGeometry x="190" y="780" width="120" height="60" as="geometry" />
        </mxCell>
        <mxCell id="jqsIoBwaRQyOEGOpOjdC-42" value="" style="endArrow=classic;html=1;rounded=0;exitX=0.5;exitY=1;exitDx=0;exitDy=0;entryX=0.5;entryY=0;entryDx=0;entryDy=0;fillColor=#f8cecc;strokeColor=#b85450;" edge="1" parent="1" source="jqsIoBwaRQyOEGOpOjdC-19" target="jqsIoBwaRQyOEGOpOjdC-41">
          <mxGeometry width="50" height="50" relative="1" as="geometry">
            <mxPoint x="240" y="720" as="sourcePoint" />
            <mxPoint x="290" y="670" as="targetPoint" />
          </mxGeometry>
        </mxCell>
        <mxCell id="jqsIoBwaRQyOEGOpOjdC-44" value="&lt;font color=&quot;#009900&quot;&gt;OK&lt;/font&gt;" style="text;html=1;align=center;verticalAlign=middle;whiteSpace=wrap;rounded=0;" vertex="1" parent="1">
          <mxGeometry x="315" y="760" width="60" height="30" as="geometry" />
        </mxCell>
        <mxCell id="jqsIoBwaRQyOEGOpOjdC-45" value="" style="endArrow=classic;html=1;rounded=0;exitX=-0.024;exitY=0.789;exitDx=0;exitDy=0;exitPerimeter=0;entryX=1.005;entryY=0.819;entryDx=0;entryDy=0;entryPerimeter=0;fillColor=#f8cecc;strokeColor=#b85450;" edge="1" parent="1" source="jqsIoBwaRQyOEGOpOjdC-15" target="jqsIoBwaRQyOEGOpOjdC-19">
          <mxGeometry width="50" height="50" relative="1" as="geometry">
            <mxPoint x="240" y="780" as="sourcePoint" />
            <mxPoint x="290" y="730" as="targetPoint" />
          </mxGeometry>
        </mxCell>
        <mxCell id="jqsIoBwaRQyOEGOpOjdC-46" value="envoie résultat de la catégorie" style="text;html=1;align=center;verticalAlign=middle;whiteSpace=wrap;rounded=0;fillColor=#f8cecc;strokeColor=#b85450;" vertex="1" parent="1">
          <mxGeometry x="315" y="650" width="100" height="40" as="geometry" />
        </mxCell>
        <mxCell id="jqsIoBwaRQyOEGOpOjdC-47" style="edgeStyle=orthogonalEdgeStyle;rounded=0;orthogonalLoop=1;jettySize=auto;html=1;entryX=0.934;entryY=1.02;entryDx=0;entryDy=0;entryPerimeter=0;fillColor=#f8cecc;strokeColor=#b85450;" edge="1" parent="1" source="jqsIoBwaRQyOEGOpOjdC-41" target="jqsIoBwaRQyOEGOpOjdC-3">
          <mxGeometry relative="1" as="geometry" />
        </mxCell>
        <mxCell id="jqsIoBwaRQyOEGOpOjdC-48" value="&lt;font color=&quot;#ff0000&quot;&gt;NOK&lt;/font&gt;" style="text;html=1;align=center;verticalAlign=middle;whiteSpace=wrap;rounded=0;" vertex="1" parent="1">
          <mxGeometry x="315" y="810" width="60" height="30" as="geometry" />
        </mxCell>
        <mxCell id="jqsIoBwaRQyOEGOpOjdC-49" value="recherche selon la nouvelle catégorie" style="text;html=1;align=center;verticalAlign=middle;whiteSpace=wrap;rounded=0;fillColor=#f8cecc;strokeColor=#b85450;" vertex="1" parent="1">
          <mxGeometry x="530" y="780" width="170" height="30" as="geometry" />
        </mxCell>
        <mxCell id="jqsIoBwaRQyOEGOpOjdC-50" style="edgeStyle=orthogonalEdgeStyle;rounded=0;orthogonalLoop=1;jettySize=auto;html=1;entryX=1;entryY=0.556;entryDx=0;entryDy=0;entryPerimeter=0;fillColor=#f8cecc;strokeColor=#b85450;" edge="1" parent="1" source="jqsIoBwaRQyOEGOpOjdC-3" target="jqsIoBwaRQyOEGOpOjdC-15">
          <mxGeometry relative="1" as="geometry">
            <Array as="points">
              <mxPoint x="770" y="580" />
            </Array>
          </mxGeometry>
        </mxCell>
        <mxCell id="jqsIoBwaRQyOEGOpOjdC-52" value="&lt;font color=&quot;#009900&quot;&gt;OK&lt;/font&gt;" style="text;html=1;align=center;verticalAlign=middle;whiteSpace=wrap;rounded=0;" vertex="1" parent="1">
          <mxGeometry x="670" y="410" width="60" height="30" as="geometry" />
        </mxCell>
        <mxCell id="jqsIoBwaRQyOEGOpOjdC-53" value="info aucun résultat trouvé" style="rounded=0;whiteSpace=wrap;html=1;" vertex="1" parent="1">
          <mxGeometry x="190" y="120" width="120" height="60" as="geometry" />
        </mxCell>
        <mxCell id="jqsIoBwaRQyOEGOpOjdC-55" value="&lt;font color=&quot;#ff0000&quot;&gt;NOK&lt;/font&gt;" style="text;html=1;align=center;verticalAlign=middle;whiteSpace=wrap;rounded=0;" vertex="1" parent="1">
          <mxGeometry x="690" y="300" width="60" height="30" as="geometry" />
        </mxCell>
      </root>
    </mxGraphModel>
  </diagram>
</mxfile>
